# xmcd
#
# Track frame offsets: 
#        150
#        10493
#        21835
#        35635
#        47255
#        58993
#        70963
#        83395
#        95220
#        106385
#        119870
#        132880
#        145138
#        157805
#        170508
#        186743
#        198825
#        209200
#        221228
#        233140
#        244970
#        257453
#        268833
#        281125
#        294150
#
# Disc length: 4069 seconds
#
# Revision: 3
# Processed by: cddbd v1.5.2PL0 Copyright (c) Steve Scherf et al.
# Submitted via: ExactAudioCopy v0.95b4
#
DISCID=890fe319
DTITLE=Bobby "Blue" Bland - Turn On Your Love Light - The Duke Recordi
DTITLE=ngs (Volume 2) [CD2]
DYEAR=1900
DGENRE=Blues
TTITLE0=Sometimes You Gotta Cry A Little
TTITLE1=Honey Child
TTITLE2=I'll Call You Tomorrow
TTITLE3=Dust Got In Daddy's Eyes
TTITLE4=If I Hadn't Called You Back
TTITLE5=Ain't Nothing You Can Do
TTITLE6=Share Your Love With Me
TTITLE7=Care For Me
TTITLE8=After It's Too Late
TTITLE9=Today
TTITLE10=Black Night (LP Version)
TTITLE11=For Men Only
TTITLE12=The Greatest
TTITLE13=Black Night (45 Version)
TTITLE14=Blind Man
TTITLE15=Steal Away
TTITLE16=If You Could Read My Mind
TTITLE17=Ain't Doin' Too Bad, Part 1
TTITLE18=Ain't Doin' Too Bad, Part 2
TTITLE19=I Won't Forget
TTITLE20=Loneliness Hurts
TTITLE21=When You Put Me Down
TTITLE22=I'm Gonna Cry
TTITLE23=Reconsider Baby
TTITLE24=Ain't No Telling
EXTD=
EXTT0=
EXTT1=
EXTT2=
EXTT3=
EXTT4=
EXTT5=
EXTT6=
EXTT7=
EXTT8=
EXTT9=
EXTT10=
EXTT11=
EXTT12=
EXTT13=
EXTT14=
EXTT15=
EXTT16=
EXTT17=
EXTT18=
EXTT19=
EXTT20=
EXTT21=
EXTT22=
EXTT23=
EXTT24=
PLAYORDER=
